<svg xmlns="http://www.w3.org/2000/svg" viewBox="0 0 30.83 24.39"><defs><style>.cls-1{fill:#9a5d8e;}.cls-2{fill:#f1f2f2;}</style></defs><g id="Layer_2" data-name="Layer 2"><g id="Layer_1-2" data-name="Layer 1"><path class="cls-1" d="M2.87,0H28c1.58,0,2.88,1.73,2.88,3.82h0V16.55c0,2.09-1.27,3.82-2.88,3.82H19l1.24,4-5.42-4H2.87C1.3,20.37,0,18.68,0,16.55H0V3.82C0,1.73,1.27,0,2.87,0Z"/><path class="cls-2" d="M11.68,5a4.28,4.28,0,0,1,1.79,1.71,5.51,5.51,0,0,1,.64,2.73v5.85H11.52V12.69H6.4v2.56H3.84V9.4a5.41,5.41,0,0,1,.64-2.73A4.22,4.22,0,0,1,6.27,5,5.9,5.9,0,0,1,9,4.38,5.92,5.92,0,0,1,11.68,5Zm-.16,5.74V9.17a2.68,2.68,0,0,0-.69-2A2.52,2.52,0,0,0,9,6.49a2.51,2.51,0,0,0-1.88.68,2.72,2.72,0,0,0-.68,2V10.7Z"/><path class="cls-2" d="M18.93,14.72a5.47,5.47,0,0,1-2.18-2A5.28,5.28,0,0,1,16,9.91a5.31,5.31,0,0,1,.79-2.85,5.47,5.47,0,0,1,2.18-2,7.23,7.23,0,0,1,5.74-.22,5.21,5.21,0,0,1,2,1.4L25,7.74a3.61,3.61,0,0,0-2.81-1.25,3.92,3.92,0,0,0-1.86.43A3.24,3.24,0,0,0,19,8.14a3.43,3.43,0,0,0-.45,1.77A3.48,3.48,0,0,0,19,11.68a3.22,3.22,0,0,0,1.27,1.21,3.93,3.93,0,0,0,1.86.44A3.63,3.63,0,0,0,25,12.06l1.67,1.47a5.3,5.3,0,0,1-2,1.42,6.9,6.9,0,0,1-2.64.48A6.57,6.57,0,0,1,18.93,14.72Z"/></g></g></svg>